<!-- Example usage:
<svg class="icon">
  <use href="/assets/icons/sprite.svg#calender-icon"></use>
</svg>

#... id from the icon you want to use
-->

<svg width="0" height="0" class="hidden">
    <symbol xmlns="http://www.w3.org/2000/svg" viewBox="0 0 24 24" id="home-icon">
        <path d="M12 3L4 9V21H9V14H15V21H20V9L12 3Z"></path>
    </symbol>
    <symbol xmlns="http://www.w3.org/2000/svg" viewBox="0 0 24 24" id="list-icon">
        <path d="M3 13H5V11H3V13ZM3 17H5V15H3V17ZM3 9H5V7H3V9ZM7 13H21V11H7V13ZM7 17H21V15H7V17ZM7 7V9H21V7H7Z"></path>
    </symbol>
    <symbol xmlns="http://www.w3.org/2000/svg" viewBox="0 0 24 24" id="measurements-icon">
        <path d="M7 19C5.9 19 5 19.9 5 21H19C19 19.9 18.1 19 17 19H13V17H16C17.1 17 18 16.1 18 15H10C8.34 15 7 13.66 7 12C7 10.91 7.59 9.96 8.46 9.44C8.17 9.03 8 8.54 8 8C8 7.79 8.04 7.58 8.09 7.38C6.28 8.13 5 9.92 5 12C5 14.76 7.24 17 10 17V19H7Z"></path>
        <path d="M10.56 5.51C11.91 5.54 13 6.64 13 8C13 8.75 12.67 9.41 12.15 9.87L12.74 11.49L13.68 11.15L14.02 12.09L15.9 11.41L15.56 10.47L16.5 10.13L13.76 2.6L12.82 2.94L12.48 2L10.6 2.68L10.94 3.62L10 3.97L10.56 5.51Z"></path>
        <path d="M10.5 9.5C11.3284 9.5 12 8.82843 12 8C12 7.17157 11.3284 6.5 10.5 6.5C9.67157 6.5 9 7.17157 9 8C9 8.82843 9.67157 9.5 10.5 9.5Z"></path>
    </symbol>
    <symbol xmlns="http://www.w3.org/2000/svg" viewBox="0 0 24 24" id="notifications-icon">
        <path d="M7.58003 4.08L6.15003 2.65C3.75003 4.48 2.17003 7.3 2.03003 10.5H4.03003C4.18003 7.85 5.54003 5.53 7.58003 4.08ZM19.97 10.5H21.97C21.82 7.3 20.24 4.48 17.85 2.65L16.43 4.08C18.45 5.53 19.82 7.85 19.97 10.5ZM18 11C18 7.93 16.36 5.36 13.5 4.68V4C13.5 3.17 12.83 2.5 12 2.5C11.17 2.5 10.5 3.17 10.5 4V4.68C7.63003 5.36 6.00003 7.92 6.00003 11V16L4.00003 18V19H20V18L18 16V11ZM12 22C12.14 22 12.27 21.99 12.4 21.96C13.05 21.82 13.58 21.38 13.84 20.78C13.94 20.54 13.99 20.28 13.99 20H9.99003C10 21.1 10.89 22 12 22Z"></path>
    </symbol>
    <symbol xmlns="http://www.w3.org/2000/svg" viewBox="0 0 24 24" id="warning-icon">
        <path d="M12 2C6.48 2 2 6.48 2 12C2 17.52 6.48 22 12 22C17.52 22 22 17.52 22 12C22 6.48 17.52 2 12 2ZM13 17H11V15H13V17ZM13 13H11V7H13V13Z"></path>
    </symbol>
    <symbol xmlns="http://www.w3.org/2000/svg" viewBox="0 0 24 24" id="rounded-plus-icon">
        <path d="M13 7H11V11H7V13H11V17H13V13H17V11H13V7ZM12 2C6.49 2 2 6.49 2 12C2 17.51 6.49 22 12 22C17.51 22 22 17.51 22 12C22 6.49 17.51 2 12 2ZM12 20C7.59 20 4 16.41 4 12C4 7.59 7.59 4 12 4C16.41 4 20 7.59 20 12C20 16.41 16.41 20 12 20Z"></path>
    </symbol>
    <symbol xmlns="http://www.w3.org/2000/svg" viewBox="0 0 24 24" id="account-icon">
        <path d="M12 2C6.48 2 2 6.48 2 12C2 17.52 6.48 22 12 22C17.52 22 22 17.52 22 12C22 6.48 17.52 2 12 2ZM12 5C13.66 5 15 6.34 15 8C15 9.66 13.66 11 12 11C10.34 11 9 9.66 9 8C9 6.34 10.34 5 12 5ZM12 19.2C9.5 19.2 7.29 17.92 6 15.98C6.03 13.99 10 12.9 12 12.9C13.99 12.9 17.97 13.99 18 15.98C16.71 17.92 14.5 19.2 12 19.2Z"></path>
    </symbol>
    <symbol xmlns="http://www.w3.org/2000/svg" viewBox="0 0 24 24" id="arrow-icon">
        <path d="M16.59 8.59009L12 13.1701L7.41 8.59009L6 10.0001L12 16.0001L18 10.0001L16.59 8.59009Z"></path>
    </symbol>
    <symbol xmlns="http://www.w3.org/2000/svg" viewBox="0 0 24 24" id="calender-icon">
        <path d="M20 3H19V1H17V3H7V1H5V3H4C2.9 3 2 3.9 2 5V21C2 22.1 2.9 23 4 23H20C21.1 23 22 22.1 22 21V5C22 3.9 21.1 3 20 3ZM20 21H4V8H20V21Z"></path>
    </symbol>
    <symbol xmlns="http://www.w3.org/2000/svg" viewBox="0 0 24 24" id="department-icon">
        <path d="M5 11H8C8.55 11 9 10.55 9 10V6C9 5.45 8.55 5 8 5H5C4.45 5 4 5.45 4 6V10C4 10.55 4.45 11 5 11ZM5 18H8C8.55 18 9 17.55 9 17V13C9 12.45 8.55 12 8 12H5C4.45 12 4 12.45 4 13V17C4 17.55 4.45 18 5 18ZM11 18H14C14.55 18 15 17.55 15 17V13C15 12.45 14.55 12 14 12H11C10.45 12 10 12.45 10 13V17C10 17.55 10.45 18 11 18ZM17 18H20C20.55 18 21 17.55 21 17V13C21 12.45 20.55 12 20 12H17C16.45 12 16 12.45 16 13V17C16 17.55 16.45 18 17 18ZM11 11H14C14.55 11 15 10.55 15 10V6C15 5.45 14.55 5 14 5H11C10.45 5 10 5.45 10 6V10C10 10.55 10.45 11 11 11ZM16 6V10C16 10.55 16.45 11 17 11H20C20.55 11 21 10.55 21 10V6C21 5.45 20.55 5 20 5H17C16.45 5 16 5.45 16 6Z"></path>
    </symbol>
    <symbol xmlns="http://www.w3.org/2000/svg" viewBox="0 0 24 24" id="chart-icon">
        <path d="M2 19.99L9.5 12.48L13.5 16.48L20.59 8.51001L22 9.92001L13.5 19.48L9.5 15.48L3.5 21.49L2 19.99ZM3.5 15.49L9.5 9.48001L13.5 13.48L22 3.92001L20.59 2.51001L13.5 10.48L9.5 6.48001L2 13.99L3.5 15.49Z"></path>
    </symbol>
    <symbol xmlns="http://www.w3.org/2000/svg" viewBox="0 0 24 24" id="dots-icon">
        <path d="M12 8C13.1 8 14 7.1 14 6C14 4.9 13.1 4 12 4C10.9 4 10 4.9 10 6C10 7.1 10.9 8 12 8ZM12 10C10.9 10 10 10.9 10 12C10 13.1 10.9 14 12 14C13.1 14 14 13.1 14 12C14 10.9 13.1 10 12 10ZM12 16C10.9 16 10 16.9 10 18C10 19.1 10.9 20 12 20C13.1 20 14 19.1 14 18C14 16.9 13.1 16 12 16Z"></path>
    </symbol>
    <symbol xmlns="http://www.w3.org/2000/svg" viewBox="0 0 24 24" id="edit-icon">
        <path d="M14.06 9.02L14.98 9.94L5.92 19H5V18.08L14.06 9.02ZM17.66 3C17.41 3 17.15 3.1 16.96 3.29L15.13 5.12L18.88 8.87L20.71 7.04C21.1 6.65 21.1 6.02 20.71 5.63L18.37 3.29C18.17 3.09 17.92 3 17.66 3ZM14.06 6.19L3 17.25V21H6.75L17.81 9.94L14.06 6.19Z"></path>
    </symbol>
    <symbol xmlns="http://www.w3.org/2000/svg" viewBox="0 0 24 24" id="crew-icon">
        <path d="M12 12.75C13.63 12.75 15.07 13.14 16.24 13.65C17.32 14.13 18 15.21 18 16.38V17C18 17.55 17.55 18 17 18H7C6.45 18 6 17.55 6 17V16.39C6 15.21 6.68 14.13 7.76 13.66C8.93 13.14 10.37 12.75 12 12.75ZM4 13C5.1 13 6 12.1 6 11C6 9.9 5.1 9 4 9C2.9 9 2 9.9 2 11C2 12.1 2.9 13 4 13ZM5.13 14.1C4.76 14.04 4.39 14 4 14C3.01 14 2.07 14.21 1.22 14.58C0.48 14.9 0 15.62 0 16.43V17C0 17.55 0.45 18 1 18H4.5V16.39C4.5 15.56 4.73 14.78 5.13 14.1ZM20 13C21.1 13 22 12.1 22 11C22 9.9 21.1 9 20 9C18.9 9 18 9.9 18 11C18 12.1 18.9 13 20 13ZM24 16.43C24 15.62 23.52 14.9 22.78 14.58C21.93 14.21 20.99 14 20 14C19.61 14 19.24 14.04 18.87 14.1C19.27 14.78 19.5 15.56 19.5 16.39V18H23C23.55 18 24 17.55 24 17V16.43ZM12 6C13.66 6 15 7.34 15 9C15 10.66 13.66 12 12 12C10.34 12 9 10.66 9 9C9 7.34 10.34 6 12 6Z"></path>
    </symbol>
    <symbol xmlns="http://www.w3.org/2000/svg" viewBox="0 0 24 24" id="filter-icon">
        <path d="M4.25 5.66C4.35 5.79 9.99 12.99 9.99 12.99V19C9.99 19.55 10.44 20 11 20H13.01C13.56 20 14.02 19.55 14.02 19V12.98C14.02 12.98 19.51 5.96 19.77 5.64C20.03 5.32 20 5 20 5C20 4.45 19.55 4 18.99 4H5.01C4.4 4 4 4.48 4 5C4 5.2 4.06 5.44 4.25 5.66Z"></path>
    </symbol>
    <symbol xmlns="http://www.w3.org/2000/svg" viewBox="0 0 24 24" id="history-icon">
        <path d="M13 3C8.03 3 4 7.03 4 12H1L4.89 15.89L4.96 16.03L9 12H6C6 8.13 9.13 5 13 5C16.87 5 20 8.13 20 12C20 15.87 16.87 19 13 19C11.07 19 9.32 18.21 8.06 16.94L6.64 18.36C8.27 19.99 10.51 21 13 21C17.97 21 22 16.97 22 12C22 7.03 17.97 3 13 3ZM12 8V13L16.28 15.54L17 14.33L13.5 12.25V8H12Z"></path>
    </symbol>
    <symbol xmlns="http://www.w3.org/2000/svg" viewBox="0 0 24 24" id="close-icon">
        <path d="M18.3 5.70997C17.91 5.31997 17.28 5.31997 16.89 5.70997L12 10.59L7.10997 5.69997C6.71997 5.30997 6.08997 5.30997 5.69997 5.69997C5.30997 6.08997 5.30997 6.71997 5.69997 7.10997L10.59 12L5.69997 16.89C5.30997 17.28 5.30997 17.91 5.69997 18.3C6.08997 18.69 6.71997 18.69 7.10997 18.3L12 13.41L16.89 18.3C17.28 18.69 17.91 18.69 18.3 18.3C18.69 17.91 18.69 17.28 18.3 16.89L13.41 12L18.3 7.10997C18.68 6.72997 18.68 6.08997 18.3 5.70997V5.70997Z"></path>
    </symbol>
    <symbol xmlns="http://www.w3.org/2000/svg" viewBox="0 0 24 24" id="hamburger-icon">
        <path d="M4 18H20C20.55 18 21 17.55 21 17C21 16.45 20.55 16 20 16H4C3.45 16 3 16.45 3 17C3 17.55 3.45 18 4 18ZM4 13H20C20.55 13 21 12.55 21 12C21 11.45 20.55 11 20 11H4C3.45 11 3 11.45 3 12C3 12.55 3.45 13 4 13ZM3 7C3 7.55 3.45 8 4 8H20C20.55 8 21 7.55 21 7C21 6.45 20.55 6 20 6H4C3.45 6 3 6.45 3 7Z"></path>
    </symbol>
    <symbol xmlns="http://www.w3.org/2000/svg" viewBox="0 0 24 18" id="checkmark-icon">
        <path d="M8.45783 12.3887L20.0602 0.692308C20.5181 0.230769 21.0602 0 21.6867 0C22.3133 0 22.8554 0.230769 23.3133 0.692308C23.7711 1.15385 24 1.7004 24 2.33198C24 2.96356 23.7711 3.51012 23.3133 3.97166L10.0843 17.3077C9.62651 17.7692 9.08434 18 8.45783 18C7.83132 18 7.28916 17.7692 6.83133 17.3077L0.686747 11.1134C0.228916 10.6518 0 10.1053 0 9.47368C0 8.84211 0.228916 8.29555 0.686747 7.83401C1.14458 7.37247 1.68675 7.1417 2.31325 7.1417C2.93976 7.1417 3.48193 7.37247 3.93976 7.83401L8.45783 12.3887Z"></path>
    </symbol>
    <symbol xmlns="http://www.w3.org/2000/svg" viewBox="0 0 24 24" id="maintenance-icon">
        <path d="M12.5348 2.13678C10.2627 -0.12814 6.8602 -0.590138 4.12461 0.739515L8.22799 4.82989C8.66885 5.26935 8.66885 5.97925 8.22799 6.41871L6.43064 8.21037C5.98978 8.6611 5.27763 8.6611 4.83677 8.21037L0.733389 4.11999C-0.589188 6.85818 -0.125721 10.2274 2.1464 12.4923C4.24896 14.5882 7.32367 15.1403 9.93491 14.16L18.933 23.1295C20.0973 24.2902 21.9737 24.2902 23.1268 23.1295C24.2911 21.9689 24.2911 20.0984 23.1268 18.949L14.1739 10.0133C15.2139 7.37651 14.6713 4.26648 12.5348 2.13678Z"></path>
    </symbol>
    <symbol xmlns="http://www.w3.org/2000/svg" viewBox="0 0 20 20" id="settings-icon">
        <path d="M17.14 10.94C17.18 10.64 17.2 10.33 17.2 10C17.2 9.68003 17.18 9.36002 17.13 9.06002L19.16 7.48002C19.34 7.34002 19.39 7.07002 19.28 6.87002L17.36 3.55002C17.24 3.33002 16.99 3.26002 16.77 3.33002L14.38 4.29002C13.88 3.91002 13.35 3.59002 12.76 3.35002L12.4 0.810024C12.36 0.570024 12.16 0.400024 11.92 0.400024H8.08C7.84 0.400024 7.65 0.570024 7.61 0.810024L7.25 3.35002C6.66 3.59002 6.12 3.92002 5.63 4.29002L3.24 3.33002C3.02 3.25002 2.77 3.33002 2.65 3.55002L0.740003 6.87002C0.620003 7.08002 0.660003 7.34002 0.860003 7.48002L2.89 9.06002C2.84 9.36002 2.8 9.69002 2.8 10C2.8 10.31 2.82 10.64 2.87 10.94L0.840003 12.52C0.660003 12.66 0.610003 12.93 0.720003 13.13L2.64 16.45C2.76 16.67 3.01 16.74 3.23 16.67L5.62 15.71C6.12 16.09 6.65 16.41 7.24 16.65L7.6 19.19C7.65 19.43 7.84 19.6 8.08 19.6H11.92C12.16 19.6 12.36 19.43 12.39 19.19L12.75 16.65C13.34 16.41 13.88 16.09 14.37 15.71L16.76 16.67C16.98 16.75 17.23 16.67 17.35 16.45L19.27 13.13C19.39 12.91 19.34 12.66 19.15 12.52L17.14 10.94ZM10 13.6C8.02 13.6 6.4 11.98 6.4 10C6.4 8.02002 8.02 6.40002 10 6.40002C11.98 6.40002 13.6 8.02002 13.6 10C13.6 11.98 11.98 13.6 10 13.6Z"></path>
    </symbol>
    <symbol xmlns="http://www.w3.org/2000/svg" viewBox="0 0 24 24" id="task-icon">
        <g clip-path="url(#clip0_6_8842)">
            <path d="M19 2H14.82C14.4 0.84 13.3 0 12 0C10.7 0 9.6 0.84 9.18 2H5C3.9 2 3 2.9 3 4V20C3 21.1 3.9 22 5 22H19C20.1 22 21 21.1 21 20V4C21 2.9 20.1 2 19 2ZM12 2C12.55 2 13 2.45 13 3C13 3.55 12.55 4 12 4C11.45 4 11 3.55 11 3C11 2.45 11.45 2 12 2ZM19 20H5V4H7V7H17V4H19V20Z"></path>
        </g>
        <defs>
            <clipPath id="clip0_6_8842">
                <rect width="24" height="24"></rect>
            </clipPath>
        </defs>
    </symbol>

</svg>
